<svg xmlns:dc="http://purl.org/dc/elements/1.1/" xmlns:cc="http://creativecommons.org/ns#"
    xmlns:rdf="http://www.w3.org/1999/02/22-rdf-syntax-ns#" xmlns:svg="http://www.w3.org/2000/svg"
    xmlns="http://www.w3.org/2000/svg" xmlns:sodipodi="http://sodipodi.sourceforge.net/DTD/sodipodi-0.dtd"
    xmlns:inkscape="http://www.inkscape.org/namespaces/inkscape" viewBox="0 0 100 125" version="1.1" x="0px" y="0px">
    <g transform="translate(0,-952.36216)">
        <path style="opacity:1;fill:rgb(230, 230, 230);fill-opacity:1;stroke:none"
            d="M 49.285156 8.3925781 A 42.142857 42.142857 0 0 0 7.1425781 50.535156 A 42.142857 42.142857 0 0 0 49.285156 92.677734 A 42.142857 42.142857 0 0 0 91.427734 50.535156 A 42.142857 42.142857 0 0 0 49.285156 8.3925781 z M 49.285156 15.714844 A 34.821381 34.821381 0 0 1 84.105469 50.535156 A 34.821381 34.821381 0 0 1 49.285156 85.355469 A 34.821381 34.821381 0 0 1 14.464844 50.535156 A 34.821381 34.821381 0 0 1 49.285156 15.714844 z "
            transform="translate(0,952.36216)" />
    </g>
</svg>